<svg xmlns="http://www.w3.org/2000/svg" version="1.2" viewBox="0 0 500 500" width="40" height="40"><style>.a{fill:#f3f3ff}</style><path class="a" d="m194.1 412.1h11.9v28.1h-11q-43.7 0-58.5-14.4-14.9-14.5-14.9-57.6v-46.7q0-29.5-9.6-40.8-9.3-11.4-34.3-11.4h-10.8v-27.9h10.8q25.2 0 34.5-11.1 9.4-11.4 9.4-40.5v-46.8q0-43.2 14.9-57.5 14.8-14.4 58.5-14.4h11v27.9h-11.9q-24.8 0-32.5 8.6-7.4 8.6-7.4 36.1v48.5q0 30.7-8 44.5-8 13.9-27.3 18.8 19.5 5.2 27.3 19.1 8 13.9 8 44.3v48.5q0 27.5 7.4 36.1 7.7 8.6 32.5 8.6zm101.7 28.1v-28.1h12.3q24.6 0 32.1-8.4 7.6-8.4 7.6-36.3v-48.5q0-30.4 7.8-44.3 8-13.9 27.5-19.1-19.5-4.9-27.5-18.8-7.8-13.8-7.8-44.5v-48.5q0-27.7-7.6-36.1-7.5-8.6-32.1-8.6h-12.3v-27.9h11.2q43.7 0 58.4 14.4 14.8 14.3 14.8 57.5v46.8q0 29.1 9.4 40.5 9.5 11.1 34.4 11.1h10.9v27.9h-10.9q-24.9 0-34.4 11.4-9.4 11.3-9.4 40.8v46.7q0 43.1-14.8 57.6-14.7 14.4-58.4 14.4z"/></svg>